<?xml version="1.0" encoding="UTF-8" standalone="no"?>
<!DOCTYPE svg PUBLIC "-//W3C//DTD SVG 1.1//EN"
 "http://www.w3.org/Graphics/SVG/1.1/DTD/svg11.dtd">
<!-- Generated by graphviz version 2.43.0 (0)
 -->
<!-- Title: %3 Pages: 1 -->
<svg width="880pt" height="218pt"
 viewBox="0.00 0.00 880.38 218.00" xmlns="http://www.w3.org/2000/svg" xmlns:xlink="http://www.w3.org/1999/xlink">
<g id="graph0" class="graph" transform="scale(1 1) rotate(0) translate(4 214)">
<title>%3</title>
<polygon fill="white" stroke="transparent" points="-4,4 -4,-214 876.38,-214 876.38,4 -4,4"/>
<!-- 0 -->
<g id="node1" class="node">
<title>0</title>
<ellipse fill="none" stroke="black" cx="431.69" cy="-192" rx="98.28" ry="18"/>
<text text-anchor="middle" x="431.69" y="-188.3" font-family="Times,serif" font-size="14.00">f183&lt;&#45;1.12973702</text>
</g>
<!-- 1 -->
<g id="node2" class="node">
<title>1</title>
<ellipse fill="none" stroke="black" cx="318.69" cy="-105" rx="103.98" ry="18"/>
<text text-anchor="middle" x="318.69" y="-101.3" font-family="Times,serif" font-size="14.00">f130&lt;&#45;0.192267507</text>
</g>
<!-- 0&#45;&gt;1 -->
<g id="edge1" class="edge">
<title>0&#45;&gt;1</title>
<path fill="none" stroke="#ff0000" d="M409.64,-174.41C392.4,-161.45 368.26,-143.28 349.18,-128.93"/>
<polygon fill="#ff0000" stroke="#ff0000" points="351.17,-126.05 341.08,-122.84 346.96,-131.65 351.17,-126.05"/>
<text text-anchor="middle" x="395.19" y="-144.8" font-family="Times,serif" font-size="14.00">yes</text>
</g>
<!-- 2 -->
<g id="node3" class="node">
<title>2</title>
<ellipse fill="none" stroke="black" cx="544.69" cy="-105" rx="103.98" ry="18"/>
<text text-anchor="middle" x="544.69" y="-101.3" font-family="Times,serif" font-size="14.00">f184&lt;&#45;0.494501173</text>
</g>
<!-- 0&#45;&gt;2 -->
<g id="edge2" class="edge">
<title>0&#45;&gt;2</title>
<path fill="none" stroke="#0000ff" d="M453.75,-174.41C470.98,-161.45 495.12,-143.28 514.21,-128.93"/>
<polygon fill="#0000ff" stroke="#0000ff" points="516.42,-131.65 522.3,-122.84 512.21,-126.05 516.42,-131.65"/>
<text text-anchor="middle" x="536.69" y="-144.8" font-family="Times,serif" font-size="14.00">no, missing</text>
</g>
<!-- 3 -->
<g id="node4" class="node">
<title>3</title>
<ellipse fill="none" stroke="black" cx="102.69" cy="-18" rx="102.88" ry="18"/>
<text text-anchor="middle" x="102.69" y="-14.3" font-family="Times,serif" font-size="14.00">leaf=0.0482747927</text>
</g>
<!-- 1&#45;&gt;3 -->
<g id="edge3" class="edge">
<title>1&#45;&gt;3</title>
<path fill="none" stroke="#ff0000" d="M278.82,-88.31C243.09,-74.25 190.53,-53.57 152.13,-38.46"/>
<polygon fill="#ff0000" stroke="#ff0000" points="153.28,-35.15 142.69,-34.74 150.72,-41.66 153.28,-35.15"/>
<text text-anchor="middle" x="236.19" y="-57.8" font-family="Times,serif" font-size="14.00">yes</text>
</g>
<!-- 4 -->
<g id="node5" class="node">
<title>4</title>
<ellipse fill="none" stroke="black" cx="320.69" cy="-18" rx="96.68" ry="18"/>
<text text-anchor="middle" x="320.69" y="-14.3" font-family="Times,serif" font-size="14.00">leaf=0.184736148</text>
</g>
<!-- 1&#45;&gt;4 -->
<g id="edge4" class="edge">
<title>1&#45;&gt;4</title>
<path fill="none" stroke="#0000ff" d="M319.1,-86.8C319.37,-75.16 319.74,-59.55 320.05,-46.24"/>
<polygon fill="#0000ff" stroke="#0000ff" points="323.55,-46.26 320.29,-36.18 316.55,-46.09 323.55,-46.26"/>
<text text-anchor="middle" x="361.69" y="-57.8" font-family="Times,serif" font-size="14.00">no, missing</text>
</g>
<!-- 5 -->
<g id="node6" class="node">
<title>5</title>
<ellipse fill="none" stroke="black" cx="542.69" cy="-18" rx="105.88" ry="18"/>
<text text-anchor="middle" x="542.69" y="-14.3" font-family="Times,serif" font-size="14.00">leaf=&#45;0.0834136531</text>
</g>
<!-- 2&#45;&gt;5 -->
<g id="edge5" class="edge">
<title>2&#45;&gt;5</title>
<path fill="none" stroke="#ff0000" d="M544.29,-86.8C544.01,-75.16 543.64,-59.55 543.33,-46.24"/>
<polygon fill="#ff0000" stroke="#ff0000" points="546.83,-46.09 543.1,-36.18 539.83,-46.26 546.83,-46.09"/>
<text text-anchor="middle" x="557.19" y="-57.8" font-family="Times,serif" font-size="14.00">yes</text>
</g>
<!-- 6 -->
<g id="node7" class="node">
<title>6</title>
<ellipse fill="none" stroke="black" cx="769.69" cy="-18" rx="102.88" ry="18"/>
<text text-anchor="middle" x="769.69" y="-14.3" font-family="Times,serif" font-size="14.00">leaf=0.0105366847</text>
</g>
<!-- 2&#45;&gt;6 -->
<g id="edge6" class="edge">
<title>2&#45;&gt;6</title>
<path fill="none" stroke="#0000ff" d="M585.96,-88.41C623.35,-74.29 678.57,-53.43 718.7,-38.26"/>
<polygon fill="#0000ff" stroke="#0000ff" points="720.19,-41.44 728.3,-34.64 717.71,-34.9 720.19,-41.44"/>
<text text-anchor="middle" x="711.69" y="-57.8" font-family="Times,serif" font-size="14.00">no, missing</text>
</g>
</g>
</svg>
